<svg width="337" height="437" viewBox="0 0 337 437" fill="none" xmlns="http://www.w3.org/2000/svg">
<g filter="url(#filter0_d_15_146)">
<path d="M56.7125 155.928C69.3898 106.601 103.031 73.8684 145.174 56.4512C187.329 39.0293 237.984 36.9374 284.618 48.9225C307.924 54.9123 320.048 63.8658 324.888 75.3416C329.738 86.8438 327.351 101.05 321.189 117.742C316.654 130.031 310.107 143.585 302.999 158.301C300.457 163.564 297.843 168.975 295.224 174.53C285.289 195.602 275.292 218.71 268.919 243.507C262.664 267.846 258.68 288.243 255.287 305.609L255.109 306.521C251.676 324.094 248.83 338.516 244.801 350.797C240.776 363.067 235.575 373.178 227.446 382.122C219.313 391.07 208.225 398.878 192.386 406.504C167.417 418.525 144.925 415.093 125.578 401.649C106.199 388.182 89.9564 364.651 77.6224 336.46C52.9523 280.073 44.0244 205.298 56.7125 155.928Z" stroke="#FFFEFF" stroke-opacity="0.16"/>
<path d="M75.3848 163.865C97.9328 76.1311 189.976 46.0306 267.909 66.0598C287.366 71.0605 297.389 78.8241 301.287 88.903C305.201 99.0202 303.017 111.635 297.629 126.515C293.663 137.467 287.994 149.566 281.838 162.705C279.636 167.403 277.373 172.235 275.102 177.194C266.491 196.005 257.801 216.622 252.129 238.69C246.589 260.248 242.976 278.309 239.898 293.695L239.693 294.722C236.569 310.338 233.976 323.151 230.424 334.084C226.875 345.006 222.376 354.031 215.451 362.066C208.524 370.103 199.147 377.176 185.81 384.162C175.274 389.68 165.322 391.746 156.014 390.991C146.705 390.235 138.007 386.656 129.986 380.83C113.929 369.17 100.61 348.531 90.6221 323.691C70.6454 274.009 64.0958 207.791 75.3848 163.865Z" stroke="#FFFEFF" stroke-opacity="0.16"/>
<path d="M92.7265 172.83C111.866 98.3571 186.75 71.9911 249.691 88.1673C265.399 92.2041 273.412 98.6616 276.46 107.119C279.525 115.623 277.637 126.309 273.121 138.96C269.799 148.27 265.084 158.567 259.963 169.752C258.131 173.752 256.247 177.867 254.357 182.09C247.188 198.102 239.937 215.649 235.119 234.394C230.414 252.703 227.306 268.032 224.659 281.09L224.482 281.962C221.794 295.216 219.566 306.087 216.579 315.376C213.595 324.655 209.861 332.333 204.173 339.197C198.483 346.062 190.819 352.137 179.942 358.18C171.356 362.95 163.286 364.79 155.772 364.244C148.257 363.698 141.26 360.763 134.826 355.92C121.944 346.223 111.355 328.899 103.503 307.969C87.7989 266.111 83.1424 210.121 92.7265 172.83Z" stroke="#FFFEFF" stroke-opacity="0.16"/>
<path d="M110.068 181.795C125.803 120.571 183.536 97.9547 231.474 110.275C243.425 113.346 249.43 118.494 251.631 125.329C253.85 132.223 252.257 140.982 248.613 151.407C245.933 159.075 242.173 167.571 238.087 176.802C236.625 180.104 235.121 183.5 233.611 186.987C227.885 200.202 222.073 214.676 218.109 230.098C214.239 245.158 211.636 257.756 209.419 268.485L209.271 269.202C207.02 280.094 205.156 289.024 202.734 296.669C200.314 304.305 197.344 310.638 192.892 316.331C188.439 322.025 182.485 327.103 174.068 332.202C167.432 336.223 161.244 337.835 155.526 337.498C149.809 337.161 144.515 334.873 139.671 331.014C129.963 323.281 122.103 309.274 116.385 292.252C104.953 258.219 102.188 212.455 110.068 181.795Z" stroke="#FFFEFF" stroke-opacity="0.16"/>
</g>
<defs>
<filter id="filter0_d_15_146" x="46.4686" y="40.8635" width="285.506" height="381.512" filterUnits="userSpaceOnUse" color-interpolation-filters="sRGB">
<feFlood flood-opacity="0" result="BackgroundImageFix"/>
<feColorMatrix in="SourceAlpha" type="matrix" values="0 0 0 0 0 0 0 0 0 0 0 0 0 0 0 0 0 0 127 0" result="hardAlpha"/>
<feOffset dy="4"/>
<feGaussianBlur stdDeviation="2"/>
<feComposite in2="hardAlpha" operator="out"/>
<feColorMatrix type="matrix" values="0 0 0 0 0 0 0 0 0 0 0 0 0 0 0 0 0 0 0.25 0"/>
<feBlend mode="normal" in2="BackgroundImageFix" result="effect1_dropShadow_15_146"/>
<feBlend mode="normal" in="SourceGraphic" in2="effect1_dropShadow_15_146" result="shape"/>
</filter>
</defs>
</svg>
