<svg width="141" height="159" viewBox="0 0 141 159" fill="none" xmlns="http://www.w3.org/2000/svg">
<path d="M35.4945 122.569C33.4933 120.493 33.4156 117.283 35.2357 115.047L78.2687 62.179L131.976 101.043C134.294 102.721 135.058 105.808 133.698 108.326C126.893 120.925 106.333 156.559 90.3189 158.867C74.3448 161.17 45.3914 132.834 35.4945 122.569Z" fill="#FF9E77"/>
<path fill-rule="evenodd" clip-rule="evenodd" d="M63.4791 128.511C63.0268 128.299 62.5605 128.3 62.1999 128.515C61.8392 128.73 61.6154 129.139 61.5858 129.637C61.5586 130.095 61.6916 130.596 61.9604 131.048C62.2292 131.5 62.606 131.856 63.0215 132.051C63.4738 132.263 63.9401 132.261 64.3007 132.047C64.6614 131.832 64.8852 131.423 64.9149 130.924C64.9421 130.466 64.809 129.965 64.5402 129.513C64.2714 129.062 63.8946 128.706 63.4791 128.511ZM65.9802 132.869C64.8486 132.465 63.7557 132.523 62.9027 133.03C62.0497 133.538 61.4778 134.471 61.2922 135.658C61.1254 136.724 61.3079 137.835 61.7802 138.629C62.0097 139.015 62.3024 139.239 62.6502 139.294C62.9935 139.349 63.335 139.233 63.6731 139.032C64.0328 138.818 64.3887 138.507 64.7383 138.202C65.0438 137.935 65.3324 137.683 65.5821 137.534C65.7976 137.406 66.135 137.282 66.4921 137.15C67.3268 136.843 68.2728 136.494 68.5216 135.792C68.6398 135.458 68.5851 135.096 68.3589 134.716C67.8865 133.922 66.9973 133.231 65.9802 132.869ZM59.2705 130.258C59.6312 130.043 60.0974 130.042 60.5497 130.253C60.9652 130.448 61.3421 130.804 61.6109 131.256C61.8797 131.708 62.0127 132.209 61.9855 132.667C61.9559 133.166 61.7321 133.575 61.3714 133.789C61.0107 134.004 60.5445 134.005 60.0922 133.793C59.6767 133.599 59.2999 133.243 59.0311 132.791C58.7623 132.339 58.6292 131.838 58.6564 131.38C58.686 130.881 58.9099 130.472 59.2705 130.258ZM67.554 129.84C67.2603 129.567 66.9093 129.451 66.5656 129.512C66.2891 129.562 66.0425 129.728 65.8712 129.98C65.6352 130.328 65.5559 130.803 65.6536 131.284C65.7335 131.676 65.9238 132.028 66.1895 132.275C66.4832 132.548 66.8342 132.664 67.1779 132.602C67.2968 132.581 67.4102 132.538 67.5144 132.476C67.6526 132.394 67.7747 132.278 67.8723 132.134C68.1083 131.787 68.1876 131.312 68.0899 130.831L68.0899 130.831C68.01 130.439 67.8198 130.086 67.554 129.84ZM58.8062 134.183C59.2242 134.142 59.6795 134.298 60.0552 134.614C60.3622 134.871 60.5808 135.207 60.6708 135.558C60.7702 135.946 60.7048 136.31 60.4866 136.583C60.4111 136.677 60.3194 136.756 60.2151 136.818C60.077 136.9 59.9169 136.952 59.744 136.969C59.326 137.011 58.8707 136.854 58.495 136.539L58.495 136.539C58.188 136.281 57.9694 135.946 57.8795 135.595C57.78 135.206 57.8454 134.843 58.0636 134.57C58.2391 134.351 58.5028 134.213 58.8062 134.183Z" fill="white" fill-opacity="0.5"/>
<path fill-rule="evenodd" clip-rule="evenodd" d="M110.375 122.255C110.754 122.435 111.015 122.821 111.091 123.315C111.161 123.768 111.076 124.28 110.85 124.755C110.625 125.23 110.283 125.619 109.887 125.852C109.457 126.105 108.993 126.147 108.613 125.967C108.234 125.788 107.973 125.401 107.897 124.908C107.827 124.454 107.913 123.943 108.138 123.468C108.364 122.993 108.706 122.603 109.101 122.37C109.532 122.117 109.996 122.075 110.375 122.255ZM114.171 124.776C114.095 124.283 113.833 123.896 113.454 123.716C113.075 123.537 112.611 123.579 112.18 123.832C111.785 124.065 111.443 124.454 111.218 124.929C110.992 125.404 110.906 125.916 110.976 126.369C111.052 126.863 111.314 127.249 111.693 127.429C112.072 127.609 112.536 127.567 112.967 127.314C113.362 127.081 113.704 126.691 113.929 126.216C114.155 125.741 114.241 125.23 114.171 124.776ZM111.946 129.281C111.65 128.117 110.994 127.241 110.097 126.816C109.201 126.39 108.107 126.436 107.018 126.943C106.039 127.399 105.219 128.169 104.822 129.004C104.63 129.41 104.607 129.777 104.755 130.097C104.901 130.413 105.187 130.632 105.543 130.8C105.921 130.98 106.377 131.102 106.826 131.222C107.218 131.327 107.588 131.426 107.85 131.551C108.077 131.658 108.368 131.869 108.676 132.092C109.397 132.614 110.214 133.205 110.935 133.021C111.278 132.933 111.548 132.686 111.738 132.286C112.134 131.451 112.212 130.328 111.946 129.281ZM115.338 128.9C115.401 128.504 115.302 128.148 115.059 127.897C114.864 127.695 114.588 127.583 114.283 127.581C113.863 127.579 113.425 127.778 113.08 128.127C112.799 128.412 112.612 128.766 112.556 129.124C112.493 129.52 112.592 129.876 112.835 130.127C112.919 130.214 113.017 130.284 113.127 130.336C113.272 130.405 113.436 130.442 113.61 130.443C114.03 130.445 114.469 130.247 114.813 129.898L114.813 129.898C115.095 129.612 115.281 129.258 115.338 128.9ZM106.857 124.057C107.124 124.381 107.248 124.846 107.195 125.334C107.153 125.732 106.996 126.101 106.755 126.371C106.488 126.67 106.149 126.819 105.801 126.789C105.681 126.779 105.564 126.747 105.454 126.695C105.309 126.626 105.177 126.522 105.066 126.388C104.798 126.064 104.675 125.599 104.727 125.111L104.727 125.111C104.77 124.713 104.927 124.345 105.168 124.074C105.435 123.775 105.774 123.627 106.122 123.656C106.402 123.679 106.663 123.822 106.857 124.057Z" fill="white" fill-opacity="0.5"/>
<path fill-rule="evenodd" clip-rule="evenodd" d="M92.0103 134.223C91.5277 133.694 90.9093 133.439 90.3137 133.525C89.718 133.611 89.1966 134.03 88.8832 134.674C88.5954 135.266 88.4961 136.002 88.6036 136.749C88.7112 137.495 89.0146 138.174 89.4579 138.66C89.9405 139.19 90.5588 139.444 91.1545 139.358C91.7502 139.272 92.2715 138.854 92.5849 138.209C92.8728 137.618 92.9721 136.881 92.8645 136.135C92.757 135.388 92.4536 134.709 92.0103 134.223ZM92.9271 141.37C91.65 140.214 90.1709 139.689 88.7621 139.892C87.3533 140.095 86.0827 141.016 85.1843 142.486C84.3768 143.808 84.0076 145.38 84.1967 146.691C84.2885 147.328 84.5532 147.785 84.9834 148.05C85.4081 148.311 85.924 148.346 86.4823 148.265C87.0765 148.18 87.7188 147.964 88.3498 147.751C88.9013 147.566 89.4222 147.391 89.8345 147.331C90.1905 147.28 90.7057 147.301 91.2511 147.323C92.5258 147.374 93.9706 147.432 94.686 146.639C95.0261 146.262 95.1526 145.753 95.0621 145.125C94.8731 143.813 94.0749 142.41 92.9271 141.37ZM85.4753 134.223C86.071 134.137 86.6894 134.391 87.1719 134.921C87.6152 135.407 87.9186 136.086 88.0262 136.832C88.1338 137.578 88.0345 138.315 87.7466 138.907C87.4332 139.551 86.9119 139.97 86.3162 140.056C85.7205 140.142 85.1021 139.887 84.6196 139.358C84.1762 138.871 83.8729 138.193 83.7653 137.446C83.6577 136.7 83.757 135.963 84.0449 135.371C84.3583 134.727 84.8796 134.309 85.4753 134.223ZM96.6767 138.224C96.4376 137.701 96.0365 137.354 95.5475 137.247C95.1539 137.16 94.7359 137.245 94.3704 137.485C93.8668 137.815 93.5005 138.401 93.3657 139.091C93.2556 139.655 93.314 140.226 93.5303 140.699C93.7694 141.222 94.1705 141.569 94.6596 141.676C94.8288 141.713 95.0025 141.719 95.1747 141.694C95.4029 141.661 95.6283 141.575 95.8366 141.438C96.3403 141.107 96.7065 140.522 96.8413 139.832L96.8413 139.832C96.9515 139.267 96.893 138.696 96.6767 138.224ZM82.7021 139.167C83.2786 139.342 83.7953 139.8 84.1196 140.424C84.3846 140.934 84.4898 141.498 84.4159 142.013C84.3341 142.582 84.0475 143.028 83.6085 143.269C83.4567 143.352 83.2916 143.407 83.1195 143.432C82.8913 143.465 82.6507 143.445 82.4122 143.373C81.8357 143.198 81.319 142.74 80.9947 142.116L80.9947 142.116C80.7297 141.606 80.6244 141.042 80.6984 140.527C80.7802 139.958 81.0669 139.512 81.5057 139.271C81.8588 139.077 82.2837 139.04 82.7021 139.167Z" fill="white" fill-opacity="0.5"/>
<path fill-rule="evenodd" clip-rule="evenodd" d="M91.7391 22.1373C103.6 9.49143 119.46 -3.54472 131.432 0.882121C147.675 6.88805 139.113 45.289 133.701 64.4515C133.999 65.7057 134.24 66.9659 134.422 68.229C138.283 95.0147 115.124 120.518 84.8308 124.885C54.5375 129.252 24.5403 111.411 20.679 84.6258C20.4657 83.1465 20.3333 81.6479 20.2787 80.1361C9.60781 63.0751 -8.83572 29.3503 4.88351 19.1248C15.13 11.4877 34.059 19.542 49.0175 28.3351C55.2792 24.2851 62.2899 21.4579 69.7657 20.3802C77.2104 19.3071 84.6677 20.0335 91.7391 22.1373Z" fill="white"/>
<path fill-rule="evenodd" clip-rule="evenodd" d="M30.2347 105.63C58.5989 100.833 77.8274 72.2157 73.3394 41.0828C72.2875 33.7852 70.0245 26.9882 66.8081 20.902C60.4383 22.2318 54.4465 24.8239 49.0176 28.3352C34.0591 19.542 15.13 11.4877 4.8835 19.1248C-8.83569 29.3503 9.60772 63.0749 20.2786 80.1359C20.3333 81.6479 20.4656 83.1466 20.6789 84.626C21.8164 92.5165 25.2218 99.6308 30.2347 105.63Z" fill="#FED402"/>
<path fill-rule="evenodd" clip-rule="evenodd" d="M76.1455 19.8915C81.4434 19.8354 86.6896 20.6353 91.739 22.1376C103.6 9.49168 119.46 -3.54462 131.432 0.882239C147.675 6.88821 139.113 45.2896 133.701 64.452C133.999 65.7061 134.24 66.9662 134.422 68.2294C135.546 76.0248 134.381 83.7116 131.418 90.8004C104.341 91.92 79.9366 70.493 75.649 40.7499C74.6149 33.5767 74.8399 26.5371 76.1455 19.8915Z" fill="#FED402"/>
<g style="mix-blend-mode:multiply">
<path d="M9.96695 27.551C2.95045 33.6794 13.6841 54.1085 18.7762 62.8468C19.748 64.5144 22.1776 64.2595 22.9225 62.4789C27.3027 52.0085 32.4835 45.3257 40.911 35.5758C41.8707 34.4654 41.5897 32.7709 40.2841 32.1004C33.9518 28.8487 17.198 21.2352 9.96695 27.551Z" fill="#FED402" fill-opacity="0.5"/>
<path d="M129.155 10.3693C137.617 14.2663 133.09 36.8954 130.673 46.7161C130.212 48.5903 127.81 49.032 126.592 47.5343C119.433 38.7273 112.576 33.7799 101.738 26.8072C100.503 26.0131 100.294 24.3082 101.357 23.2963C106.513 18.3885 120.435 6.353 129.155 10.3693Z" fill="#FED402" fill-opacity="0.5"/>
</g>
<ellipse cx="53.246" cy="69.3225" rx="6.4168" ry="8.16683" transform="rotate(-8.203 53.246 69.3225)" fill="#56392B"/>
<ellipse cx="55.389" cy="67.8348" rx="1.75004" ry="2.33338" transform="rotate(-8.203 55.389 67.8348)" fill="white"/>
<ellipse cx="6.41232" cy="8.16114" rx="6.41232" ry="8.16114" transform="matrix(-0.990459 0.14278 0.14278 0.990459 106.931 53.3321)" fill="#56392B"/>
<ellipse cx="1.74882" cy="2.33175" rx="1.74882" ry="2.33175" transform="matrix(-0.990459 0.14278 0.14278 0.990459 100.669 58.9498)" fill="white"/>
<path d="M88.4037 80.1673C88.7255 82.3995 85.3673 84.7307 80.9031 85.3742C76.4388 86.0178 72.5589 84.73 72.2372 82.4978C71.9154 80.2657 75.1071 76.7797 79.5714 76.1362C84.0356 75.4926 88.0819 77.9352 88.4037 80.1673Z" fill="#56392B"/>
<circle cx="83.535" cy="79.1011" r="1.16669" transform="rotate(-8.203 83.535 79.1011)" fill="white"/>
<path d="M80.0708 79.6004L81.0695 86.529C81.4373 89.08 79.6674 91.4461 77.1164 91.8138L75.3843 92.0635C73.7899 92.2934 72.311 91.1872 72.0812 89.5928V89.5928" stroke="#56392B" stroke-width="2.33175" stroke-linecap="round" stroke-linejoin="round"/>
<path d="M80.0708 79.6004L81.0696 86.5289C81.4373 89.0799 83.8034 90.8498 86.3544 90.4821L88.0866 90.2324C89.6809 90.0025 90.7871 88.5237 90.5573 86.9293V86.9293" stroke="#56392B" stroke-width="2.33175" stroke-linecap="round" stroke-linejoin="round"/>
<ellipse cx="50.3801" cy="86.2382" rx="9.33352" ry="5.83345" transform="rotate(-8.203 50.3801 86.2382)" fill="#FEB1AA"/>
<ellipse cx="110.427" cy="77.5819" rx="9.33352" ry="5.83345" transform="rotate(-8.203 110.427 77.5819)" fill="#FEB1AA"/>
</svg>
