<svg width="297" height="276" viewBox="0 0 297 276" fill="none" xmlns="http://www.w3.org/2000/svg">
<path d="M132.117 195.622C161.765 220.711 197.132 226.23 231.036 218.468C264.952 210.704 297.397 189.648 321.128 161.605C332.986 147.592 336.552 136.699 334.509 127.47C332.46 118.212 324.733 110.443 313.527 102.772C305.28 97.1271 295.225 91.5832 284.3 85.5599C280.392 83.4052 276.373 81.1892 272.285 78.8852C256.79 70.1513 240.351 60.173 225.421 47.5396C210.773 35.1446 199.281 24.2012 189.498 14.8858L188.984 14.3962C179.083 4.96902 170.947 -2.74896 163.02 -8.61161C155.104 -14.4671 147.415 -18.4571 138.423 -20.4317C129.426 -22.4072 119.089 -22.3731 105.867 -20.1272C85.0544 -16.592 72.5979 -4.55154 66.5025 12.3278C60.3937 29.2442 60.6695 51.046 65.4385 74.0374C74.9776 120.025 102.435 170.505 132.117 195.622Z" stroke="#FFFEFF" stroke-opacity="0.16"/>
<path d="M140.238 182.433C192.962 227.047 263.497 205.178 303.154 158.314C313.051 146.618 315.835 137.396 313.824 129.452C311.804 121.469 304.905 114.599 294.981 107.716C287.679 102.651 278.812 97.625 269.177 92.1637C265.73 90.2098 262.185 88.2002 258.577 86.1131C244.905 78.2027 230.381 69.1982 217.093 57.9547C204.12 46.9762 193.891 37.3236 185.179 29.1025L184.596 28.5531C175.752 20.2078 168.484 13.38 161.45 8.14588C154.424 2.91821 147.651 -0.705192 139.809 -2.64495C131.964 -4.58545 123.018 -4.84918 111.637 -3.30957C102.657 -2.09487 95.5695 1.00682 90.1268 5.57183C84.6833 10.1375 80.8594 16.1887 78.443 23.3423C73.6051 37.6649 74.4226 56.3733 79.1725 76.2435C88.6723 115.984 113.83 160.086 140.238 182.433Z" stroke="#FFFEFF" stroke-opacity="0.16"/>
<path d="M147.077 169.191C191.825 207.056 250.026 190.433 282.045 152.594C290.031 143.157 292.142 135.636 290.32 129.078C288.484 122.472 282.62 116.672 274.223 110.79C268.046 106.464 260.569 102.138 252.442 97.4366C249.533 95.7541 246.542 94.0234 243.497 92.2272C231.958 85.4216 219.687 77.6944 208.399 68.1429C197.38 58.8185 188.672 50.644 181.256 43.6825L180.76 43.2172C173.232 36.15 167.047 30.3698 161.091 25.9098C155.143 21.4558 149.44 18.3326 142.885 16.576C136.328 14.8189 128.888 14.4206 119.455 15.461C112.021 16.2809 106.206 18.6924 101.789 22.3342C97.3708 25.9764 94.3215 30.8738 92.4602 36.7134C88.7318 48.4106 89.7841 63.8488 94.1366 80.3414C102.841 113.323 124.66 150.221 147.077 169.191Z" stroke="#FFFEFF" stroke-opacity="0.16"/>
<path d="M153.916 155.949C190.697 187.073 236.563 175.678 260.937 146.875C267.009 139.699 268.448 133.883 266.817 128.709C265.166 123.476 260.335 118.745 253.464 113.864C248.412 110.276 242.324 106.651 235.704 102.708C233.335 101.297 230.897 99.8456 228.414 98.3404C219.01 92.6397 208.992 86.19 199.705 78.3311C190.641 70.6611 183.454 63.9649 177.334 58.263L176.925 57.8817C170.712 52.0927 165.611 47.3598 160.732 43.6735C155.86 39.9925 151.226 37.369 145.957 35.7957C140.686 34.222 134.751 33.6902 127.268 34.2318C121.378 34.6581 116.838 36.381 113.448 39.0983C110.06 41.8154 107.786 45.5558 106.479 50.0798C103.859 59.1498 105.144 71.3173 109.099 84.4341C117.007 110.657 135.487 140.355 153.916 155.949Z" stroke="#FFFEFF" stroke-opacity="0.16"/>
</svg>
