<svg width="221" height="207" viewBox="0 0 221 207" fill="none" xmlns="http://www.w3.org/2000/svg">
<path d="M143.439 130.73C126.197 154.504 101.225 164.94 74.9226 165.36C48.6077 165.78 20.9678 156.171 -1.53329 139.851C-12.7747 131.698 -17.3288 124.363 -17.4932 117.263C-17.6583 110.134 -13.4093 103.055 -6.55836 95.3926C-1.51823 89.7553 4.86763 83.867 11.811 77.4646C14.2963 75.1729 16.8531 72.8153 19.4451 70.3798C29.263 61.155 39.5548 50.8397 48.257 38.8415C56.7904 27.0761 63.2653 16.9489 68.7755 8.33044L69.0655 7.87696C74.6434 -0.846805 79.2275 -7.98605 83.9909 -13.723C88.7466 -19.4506 93.6668 -23.7618 99.9033 -26.8297C106.144 -29.8996 113.735 -31.7404 123.854 -32.4779C139.752 -33.6367 151.047 -27.0567 158.558 -15.7802C166.09 -4.47077 169.826 11.5859 170.474 29.3442C171.77 64.8661 160.708 106.922 143.439 130.73Z" stroke="#FFFEFF" stroke-opacity="0.16"/>
<path d="M135.083 122.499C104.429 164.764 48.6899 161.454 11.0895 134.182C1.71105 127.38 -1.96599 121.134 -1.92382 114.986C-1.88137 108.797 1.92267 102.528 7.97393 95.6752C12.4243 90.6353 18.0303 85.3423 24.1269 79.5862C26.3095 77.5256 28.5549 75.4055 30.8326 73.2165C39.4585 64.9268 48.5183 55.6739 56.2635 44.9953C63.8217 34.5743 69.6007 25.6249 74.5213 18.0047L74.8505 17.495C79.847 9.75791 83.9539 3.42963 88.1751 -1.68419C92.3894 -6.78971 96.7036 -10.6664 102.101 -13.5007C107.502 -16.3364 114.017 -18.1445 122.655 -19.0683C129.458 -19.7959 135.207 -18.7984 140.012 -16.4367C144.817 -14.0746 148.707 -10.3326 151.767 -5.52435C157.895 4.10603 160.674 17.9849 160.773 33.4452C160.97 64.366 150.446 101.318 135.083 122.499Z" stroke="#FFFEFF" stroke-opacity="0.16"/>
<path d="M127.661 113.998C101.649 149.861 55.9261 148.172 25.5784 126.161C18.0148 120.675 15.1404 115.56 15.2934 110.465C15.4479 105.321 18.685 100.024 23.795 94.1837C27.5514 89.8901 32.2624 85.3632 37.3877 80.4381C39.2231 78.6744 41.1117 76.8596 43.0286 74.9862C50.2847 67.8947 57.9184 59.9885 64.4986 50.9159C70.9183 42.0648 75.8458 34.4774 80.0408 28.0178L80.3216 27.5855C84.5818 21.0261 88.0808 15.664 91.6496 11.3139C95.2121 6.97151 98.8303 3.65572 103.316 1.18873C107.803 -1.2793 113.187 -2.9136 120.301 -3.85204C125.896 -4.59019 130.584 -3.86962 134.466 -2.0018C138.349 -0.133742 141.46 2.89863 143.874 6.84024C148.713 14.7395 150.729 26.2553 150.509 39.1606C150.07 64.9673 140.7 96.0198 127.661 113.998Z" stroke="#FFFEFF" stroke-opacity="0.16"/>
<path d="M120.238 105.496C98.8616 134.969 63.1523 134.883 40.0672 118.14C34.3231 113.973 32.2489 109.992 32.5099 105.95C32.775 101.846 35.4476 97.5206 39.6167 92.6915C42.6796 89.1437 46.496 85.3825 50.6502 81.2882C52.1384 79.8215 53.67 78.3121 55.2258 76.7545C61.112 70.8613 67.3189 64.3023 72.7338 56.8365C78.0146 49.5555 82.0905 43.3303 85.56 38.0313L85.7923 37.6765C89.3162 32.2949 92.2076 27.8983 95.1246 24.3115C98.0359 20.7315 100.959 17.9758 104.534 15.8758C108.109 13.7753 112.363 12.3153 117.953 11.3629C122.342 10.6151 125.967 11.0609 128.924 12.4342C131.88 13.8073 134.211 16.1272 135.98 19.2004C139.528 25.3665 140.784 34.5182 140.246 44.8703C139.172 65.5639 130.955 90.7193 120.238 105.496Z" stroke="#FFFEFF" stroke-opacity="0.16"/>
</svg>
